<svg width="70" height="70" viewBox="0 0 80 80" fill="none" xmlns="http://www.w3.org/2000/svg">
<g clip-path="url(#clip0_92_14)">
<path d="M77.3911 70.5605C76.3468 71.1999 75.241 71.7488 74.0878 72.2005C71.9987 73.0748 69.8175 73.7471 67.5789 74.2067C66.3647 74.4539 65.1345 74.6281 63.8959 74.7283C63.0986 74.7935 61.8782 74.969 61.1459 74.5979C60.4136 74.2267 61.8944 73.2487 62.2307 73.023C63.473 72.1837 64.8141 71.4771 66.2283 70.9166C66.228 70.9978 66.2171 71.0786 66.1957 71.1573C66.0384 71.8344 67.1504 72.1203 67.2806 71.4482C67.926 68.5694 67.0365 65.4298 66.1144 62.6663C65.0842 59.4623 63.6265 56.3893 61.7751 53.5183C61.1084 52.4307 60.2712 51.4403 59.2909 50.5793C57.5172 49.0747 55.3964 48.0716 53.3244 46.9281C49.2606 44.6361 46.0408 41.2621 44.0871 37.2485C41.7439 32.5842 40.8327 27.3431 40.594 22.2275C42.2972 22.6939 44.3529 22.3428 46.0561 22.1021C50.1186 21.4921 54.0692 20.3611 57.7938 18.7418C58.4718 18.466 61.7371 17.1168 63.0064 15.7326C68.1538 23.2556 72.1568 32.6644 68.4847 41.4112C67.0582 44.8066 64.9211 47.9312 65.1326 51.6727C65.3641 54.8218 66.0406 57.9293 67.145 60.916C68.1755 63.8901 69.5804 67.4911 71.9832 70.0138C72.466 70.5154 73.285 69.7731 72.7969 69.2615L72.6775 69.1311C73.8744 68.8837 75.0889 68.7161 76.3117 68.6296C76.7836 68.6296 78.644 68.4189 78.8501 69.0158C79.0563 69.6126 77.7382 70.3549 77.3911 70.5605ZM28.2054 50.153C24.8967 52.2444 21.1269 53.6236 18.8108 56.7933C16.9171 59.5227 15.4147 62.468 14.3414 65.5552C13.2294 68.5945 11.9982 72.2958 12.7413 75.5859C12.8986 76.258 14.0159 75.9671 13.8586 75.295L13.8044 75.0693C15.0477 75.556 16.2374 76.1523 17.3572 76.8498C17.688 77.0554 19.4075 78.1036 19.1146 78.6152C18.8217 79.1267 17.4277 78.9211 17.0263 78.9211C15.8229 78.8705 14.6258 78.7313 13.4464 78.5048C11.2269 78.1177 9.05533 77.5245 6.9646 76.7344C5.74437 76.2798 4.55915 75.7486 3.41724 75.1445C2.73923 74.7584 1.5405 74.1966 1.2476 73.4393C0.954699 72.682 2.76092 72.7622 3.21112 72.7622C4.60398 72.8159 5.98894 72.9837 7.34971 73.2638L7.24665 73.3942C6.74221 73.8957 7.56125 74.6781 8.06569 74.1615C10.154 71.9598 11.4015 69.0659 12.4484 66.3326C13.6368 63.2672 14.4359 60.0845 14.8295 56.8485C14.9815 55.6935 14.9706 54.5252 14.797 53.3729C14.3956 51.2213 13.2999 49.2252 12.3453 47.2491C11.2633 45.1145 10.5565 42.8339 10.2516 40.4934C10.0054 38.1469 10.1463 35.7794 10.6693 33.4719C11.7541 28.617 14.1624 24.0681 17.0154 19.8853C17.9375 20.9636 19.5214 21.6407 20.8123 22.2325C24.4119 23.9343 28.2433 25.1793 32.2029 25.9338C32.9514 26.0793 37.3016 26.8667 39.4929 26.3501C38.9939 35.1069 36.4934 44.932 28.2054 50.153ZM18.1274 18.7268C18.8353 18.5563 19.5727 18.5171 20.297 18.6114C21.3414 18.6821 22.3796 18.8162 23.405 19.0126C27.207 19.6562 30.91 20.7256 34.4322 22.1974C36.0007 22.7729 37.4843 23.5295 38.8474 24.4493C39.021 24.5947 39.596 25.026 39.5255 25.1715C39.4549 25.3169 38.7281 25.3972 38.5166 25.4273C36.7089 25.5248 34.8955 25.3846 33.1304 25.011C29.6921 24.4139 26.3471 23.425 23.1718 22.067C21.6677 21.4804 20.2244 20.7686 18.8596 19.9405C18.4147 19.7108 18.0412 19.3792 17.7748 18.9775C17.7498 18.9513 17.7362 18.9173 17.7369 18.8822C17.8505 18.7904 17.9894 18.7297 18.1382 18.7067L18.1274 18.7268ZM40.6482 20.8131C41.1089 20.3429 41.6609 19.9568 42.2755 19.6747C43.1207 19.1949 43.9975 18.7644 44.9007 18.3857C46.7339 17.5822 48.6219 16.8902 50.5526 16.3144C52.2883 15.8128 54.062 15.3815 55.852 15.0405C57.5743 14.6358 59.3475 14.4468 61.1242 14.4787C61.4388 14.4787 62.1168 14.5139 62.3229 14.7847C62.3229 14.7847 62.3229 14.8148 62.3229 14.8348C62.2294 15.0166 62.0921 15.1761 61.9215 15.3013C60.8801 16.2492 59.3993 16.861 58.1247 17.4378C55.0554 18.8441 51.8162 19.9082 48.4752 20.6075C46.6002 21.0322 44.6823 21.2743 42.7528 21.3297C42.1029 21.3825 41.4481 21.323 40.8218 21.1542C40.4367 21.0639 40.4747 21.0639 40.6482 20.8131ZM77.4941 67.5864C75.6065 67.5607 73.7238 67.7699 71.8965 68.2083C70.3289 66.152 69.32 63.6443 68.4847 61.2921C67.342 58.2857 66.613 55.1583 66.3151 51.9836C66.2148 50.5934 66.3989 49.1982 66.8575 47.871C67.5843 45.7445 68.7668 43.7985 69.6346 41.7272C71.4083 37.4992 71.4463 32.8199 70.3669 28.4465C69.1356 23.381 66.4886 18.6565 63.4457 14.3433C63.2993 14.1368 63.1023 13.965 62.8708 13.8418C62.2276 13.521 61.5014 13.37 60.7716 13.4055C59.6321 13.4119 58.4956 13.5143 57.3762 13.7114C54.9621 14.0822 52.5802 14.6136 50.2489 15.3013C48.2798 15.8843 46.3522 16.5811 44.4777 17.3877C42.9318 18.0497 41.0876 18.7869 39.9214 19.9806C39.7592 20.1181 39.63 20.2856 39.5422 20.4722C39.4543 20.6588 39.4098 20.8604 39.4115 21.0639C39.4008 21.1237 39.4008 21.1847 39.4115 21.2445C39.4115 22.0168 39.4821 22.8042 39.5309 23.6067L39.1675 23.3509C38.2587 22.7753 37.2988 22.272 36.2981 21.8463C34.2093 20.8879 32.0485 20.07 29.8326 19.3988C27.7547 18.799 25.6412 18.31 23.5027 17.9343C21.7615 17.6485 19.7058 17.2472 17.9701 17.6485C17.5755 17.7193 17.216 17.9057 16.9449 18.1801C16.8414 18.2143 16.7547 18.282 16.7009 18.3707C11.4178 25.7984 7.05138 35.1721 9.81767 44.1596C10.9622 47.8409 13.799 51.1812 13.7827 55.1282C13.7447 58.1675 12.9311 61.2369 11.9873 64.1559C11.0435 67.0748 9.99124 69.9185 8.1362 72.3309C6.48534 71.9686 4.79868 71.7636 3.10264 71.7191C2.148 71.7191 0.667222 71.7191 0.162781 72.682C-0.894918 74.6881 3.44978 76.4435 4.80581 77.0253C7.42242 78.1806 10.1874 79.0233 13.0342 79.533C14.4622 79.8104 15.9147 79.9666 17.3734 79.9994C18.225 79.9994 19.3912 79.9693 19.9987 79.3223C20.8828 78.3744 19.7004 77.1858 18.9139 76.589C17.3218 75.444 15.5587 74.5182 13.6796 73.8405C13.5603 71.368 14.439 68.7098 15.2418 66.478C16.2903 63.3421 17.7802 60.3474 19.6733 57.5707C21.9731 54.3057 25.9164 53.0017 29.2197 50.8C32.8716 48.2778 35.7001 44.8728 37.3938 40.9598C38.9828 37.3393 39.9738 33.5183 40.3336 29.6251C41.6029 35.784 44.2661 41.7021 49.5546 45.7696C52.7711 48.2773 57.2731 49.4809 59.8116 52.6807C61.8131 55.1884 63.2233 58.1976 64.3515 61.1065C65.0599 62.8748 65.6131 64.6929 66.0059 66.5432C66.2435 67.5904 66.3598 68.658 66.353 69.728C64.6659 70.3606 63.0655 71.1754 61.5853 72.1554C60.7879 72.7171 59.5349 73.66 59.8116 74.7283C60.0882 75.7965 61.1025 75.7715 61.8836 75.8367C63.2458 75.91 64.6127 75.8241 65.9516 75.5809C68.7967 75.1544 71.5723 74.3978 74.2126 73.329C75.6428 72.7977 77.0067 72.1251 78.2806 71.3228C79.0291 70.8213 79.9838 70.0991 80.0218 69.1662C80.0489 67.9224 78.5355 67.6365 77.4941 67.5864Z" fill="#566484"/>
<path d="M64.2106 45.2233C63.9828 45.9606 63.9123 46.9286 63.3373 47.5354C62.7623 48.1423 60.9561 48.8093 59.8767 48.373C59.2687 48.0521 58.6932 47.6812 58.1573 47.2646L55.9877 45.76C53.5197 44.0849 51.0138 42.4649 49.0882 40.2431C47.5109 38.3695 46.2204 36.3038 45.2534 34.1043C46.6287 34.567 48.0607 34.8702 49.5167 35.0071C53.6323 35.5637 57.8123 35.5789 61.9325 35.0522C62.6105 34.972 65.6154 34.651 67.3566 33.8636C67.1887 36.3699 66.6258 38.8401 65.6859 41.196C65.1652 42.5201 64.6445 43.8542 64.2106 45.2233ZM44.7327 32.2286C45.3335 31.9075 45.9939 31.6932 46.6799 31.5966C47.6345 31.386 48.6109 31.2455 49.5872 31.0951C51.5875 30.8537 53.6017 30.7247 55.6188 30.7089C57.463 30.7089 59.3072 30.8042 61.146 30.9797C62.9001 31.0698 64.6323 31.3837 66.2934 31.9126C66.6243 32.043 67.145 32.2185 67.324 32.5245V32.5596L67.286 32.5897C67.1443 32.7247 66.972 32.8292 66.7816 32.8956C65.4961 33.5075 63.9123 33.683 62.5074 33.8987C59.0984 34.3863 55.6387 34.4958 52.2016 34.2247C50.2359 34.0977 48.2894 33.7851 46.3924 33.2918C45.7711 33.1761 45.1833 32.9402 44.6676 32.5997C44.6187 32.5495 44.5482 32.4392 44.5157 32.4041L44.7327 32.2286ZM67.9315 37.9561C68.3474 36.2788 68.5404 34.5609 68.5065 32.8404C68.5592 32.6385 68.5512 32.4271 68.4834 32.229C68.4155 32.031 68.2903 31.8539 68.1214 31.717C67.5752 31.2596 66.9187 30.9295 66.2066 30.754C65.1356 30.4396 64.0352 30.2179 62.9196 30.092C60.5051 29.7911 58.0715 29.6403 55.6351 29.6406C53.5359 29.6452 51.4393 29.7792 49.3594 30.0419C47.7322 30.2525 45.7958 30.4481 44.2987 31.2004C43.9027 31.3856 43.6023 31.7085 43.4634 32.0982C43.3961 32.1642 43.353 32.2483 43.3403 32.3384C43.3277 32.4284 43.3461 32.5199 43.3929 32.5997C44.4289 35.3975 45.9116 38.0364 47.7918 40.4287C49.7066 42.7959 52.4023 44.6566 55.0601 46.4772L57.2298 47.9818C57.8983 48.511 58.6256 48.9733 59.3994 49.361C60.6198 49.8926 62.0626 49.6018 63.1963 49.025C63.9804 48.6443 64.5765 47.9998 64.8615 47.2245C65.3171 45.8904 65.6642 44.5413 66.1687 43.2122C66.7816 41.4418 67.4976 39.7215 67.9315 37.9561Z" fill="#566484"/>
<path d="M25.2059 49.2107L21.0998 52.0393C20.5548 52.4084 19.8991 52.6116 19.2236 52.6206C18.5481 52.6295 17.8864 52.4439 17.3301 52.0895C17.011 51.9052 16.7397 51.6582 16.5354 51.3661C16.331 51.074 16.1987 50.744 16.1476 50.3993C15.7625 48.9549 15.2418 47.5556 14.7211 46.1413C13.6363 43.2474 12.7033 40.4137 12.5515 37.3945C13.7177 38.0013 15.2635 38.1819 16.5002 38.3975C20.6269 39.0698 24.8345 39.2099 29.0028 38.8138C29.6482 38.7536 33.2444 38.3825 35.5388 37.5449C34.6565 39.5616 33.5244 41.4769 32.165 43.2524C30.2828 45.6748 27.7986 47.4252 25.2059 49.2107ZM12.8932 35.7193C13.5599 35.3457 14.2954 35.089 15.0628 34.962C16.0894 34.7397 17.1289 34.5723 18.1763 34.4605C20.3364 34.2236 22.5099 34.1063 24.6852 34.1094C26.5273 34.1184 28.3673 34.2256 30.1961 34.4304C31.9504 34.5393 33.6814 34.8631 35.3435 35.3934C35.6648 35.4945 35.9615 35.6529 36.2168 35.8598L36.1626 35.9902C35.8961 36.1966 35.5982 36.3656 35.2784 36.4917C33.5004 37.1304 31.6311 37.5258 29.7296 37.6653C26.1224 38.0475 22.4788 38.0306 18.876 37.6152C17.1789 37.4716 15.5016 37.1708 13.8695 36.7174C13.3887 36.6242 12.9433 36.4148 12.5786 36.1105L12.546 36.0754C12.546 36.0754 12.546 36.0754 12.546 36.0453C12.6213 35.9154 12.7364 35.809 12.8769 35.7394L12.8932 35.7193ZM37.1172 35.1727C36.603 34.7047 35.9593 34.3767 35.2567 34.2248C34.1821 33.924 33.0828 33.7042 31.9697 33.5678C29.575 33.2278 27.1567 33.0501 24.734 33.0361C22.4912 33.0419 20.2507 33.1708 18.0244 33.4223C16.2127 33.6279 14.1787 33.8235 12.546 34.6611C12.1295 34.8617 11.7889 35.1748 11.5697 35.5589C11.4669 35.6601 11.4055 35.7914 11.3961 35.93C11.2768 39.4407 12.1989 42.6656 13.4302 45.9607C14.0051 47.5205 14.6126 49.0803 15.0574 50.7052C15.1897 51.447 15.5892 52.1257 16.191 52.6311C16.6992 53.0356 17.2914 53.3399 17.9312 53.5253C18.571 53.7107 19.245 53.7734 19.912 53.7094C20.5681 53.6127 21.1853 53.3585 21.7019 52.9722L24.1373 51.2971C26.9199 49.4012 29.876 47.5857 32.0999 45.1081C34.3104 42.5492 36.0445 39.6677 37.2311 36.582C37.4171 36.3807 37.5095 36.1196 37.4882 35.8556C37.4668 35.5916 37.3335 35.3461 37.1172 35.1727Z" fill="#566484"/>
<path d="M30.2503 17.4535L30.5811 17.6641C31.1235 16.8265 31.9371 16.1595 32.5772 15.3671C32.9273 14.998 33.1913 14.566 33.3528 14.0983C33.5142 13.6306 33.5696 13.1371 33.5156 12.6487C33.3257 11.6808 32.1433 10.8783 31.1723 11.2795C30.2014 11.6808 30.0387 12.6939 30.0875 13.5816C29.9357 13.014 29.6464 12.4858 29.2414 12.0369C29.0269 11.8131 28.7451 11.6536 28.4321 11.5785C28.1191 11.5035 27.789 11.5164 27.484 11.6156C27.2178 11.7308 26.9919 11.9126 26.8318 12.1404C26.6718 12.3682 26.5839 12.6329 26.5781 12.9045C26.5766 13.4502 26.726 13.9871 27.0121 14.4643C27.3664 15.1025 27.8277 15.6848 28.3789 16.1896C28.9279 16.6983 29.5592 17.1247 30.2503 17.4535Z" fill="#566484"/>
<path d="M44.4776 12.7942L44.8248 12.9999C45.3672 12.1673 46.1808 11.4952 46.81 10.7179C47.4392 9.94048 47.949 8.9675 47.7321 8.02461C47.5151 7.08173 46.3761 6.25921 45.3997 6.64539C44.4234 7.03157 44.2715 8.05972 44.3149 8.95747C44.1704 8.37891 43.8721 7.84281 43.447 7.39769C43.2322 7.17887 42.9538 7.02185 42.645 6.94536C42.3363 6.86888 42.0103 6.87617 41.7059 6.96637C41.4376 7.08106 41.2103 7.26426 41.0507 7.49439C40.8912 7.72452 40.8061 7.99201 40.8055 8.26535C40.8013 8.81129 40.9508 9.34885 41.2394 9.82513C41.9411 11.1171 43.067 12.1705 44.4559 12.8343L44.4776 12.7942Z" fill="#566484"/>
<path d="M35.8478 6.27906L36.195 6.4897C36.8058 5.69368 37.4668 4.93169 38.1748 4.20771C38.5294 3.83806 38.7965 3.40395 38.959 2.93324C39.1215 2.46253 39.1759 1.96561 39.1186 1.47434C38.907 0.501362 37.7625 -0.29608 36.7862 0.105149C35.8099 0.506378 35.658 1.51948 35.7014 2.42225C35.5594 1.83835 35.2609 1.29683 34.8335 0.847422C34.6199 0.625649 34.34 0.467303 34.0292 0.392333C33.7184 0.317363 33.3905 0.329123 33.087 0.426132C32.8192 0.54135 32.5932 0.725797 32.4363 0.957195C32.2794 1.18859 32.1983 1.45705 32.2028 1.73013C32.1966 2.27629 32.3462 2.81433 32.6368 3.2899C32.9869 3.92658 33.4426 4.50871 33.9874 5.01519C34.5324 5.52365 35.1601 5.9501 35.8478 6.27906Z" fill="#566484"/>
</g>
<defs>
<clipPath id="clip0_92_14">
<rect width="80" height="80" fill="white"/>
</clipPath>
</defs>
</svg>
