<svg width="90" height="130" viewBox="0 0 90 130" fill="none" xmlns="http://www.w3.org/2000/svg">
<path d="M44.2464 54.5141L40.0983 29.6531C39.4623 25.8832 38.8331 22.1133 38.1694 18.3433C38.1221 18.0416 38.1392 17.7324 38.2194 17.4386C38.2996 17.1447 38.4408 16.8738 38.6326 16.6458L39.324 15.5802C40.3679 14.0296 41.4464 12.4202 42.5664 10.8696C42.6799 10.7646 42.7499 10.6164 42.7616 10.4569C42.7732 10.2975 42.7255 10.1396 42.6286 10.0172C42.1447 9.05448 41.7022 8.09179 41.2459 7.07766C41.0593 6.65878 40.8657 6.24725 40.6721 5.82102L40.1605 4.7334H49.632L49.1273 5.82102L48.5397 7.09971C48.0627 8.15793 47.6064 9.15002 47.1017 10.1421C46.9634 10.4214 46.9496 10.4875 47.1639 10.7814C47.952 11.9058 48.7264 13.0449 49.5007 14.1839C50.0123 14.9188 50.5239 15.6904 51.0424 16.4327C51.2824 16.7476 51.453 17.1157 51.5415 17.51C51.63 17.9042 51.6343 18.3146 51.554 18.7108C50.3695 25.746 49.1896 32.7788 48.0143 39.8091L46.0232 51.7068L45.9817 51.964C45.9714 52.3009 45.8961 52.6318 45.7605 52.9365C45.6249 53.2411 45.432 53.513 45.1936 53.7351L44.2464 54.5141ZM42.4627 6.24725C42.4922 6.30139 42.5176 6.3579 42.5388 6.41627C43.002 7.4157 43.4375 8.3637 43.9215 9.30434C44.1406 9.68206 44.2394 10.1248 44.2033 10.5669C44.1672 11.0089 43.9981 11.4269 43.721 11.7588C42.6217 13.2947 41.5501 14.8894 40.5062 16.4327L39.7803 17.5203C39.566 17.8216 39.5383 17.8804 39.566 18.0347C40.2573 21.8046 40.8657 25.5819 41.5017 29.3592L44.9378 49.73L46.6385 39.5446C47.8092 32.5143 48.9799 25.479 50.1505 18.4389C50.1976 18.247 50.1989 18.0457 50.1542 17.8532C50.1096 17.6607 50.0204 17.4831 49.8947 17.3366L48.3461 15.0658C47.5787 13.9414 46.8113 12.8097 46.0232 11.6927C45.7678 11.3846 45.613 10.9971 45.5818 10.5878C45.5507 10.1786 45.6449 9.7696 45.8503 9.42192C46.3412 8.46658 46.7837 7.48184 47.233 6.44567C47.2676 6.37953 47.2953 6.30604 47.3298 6.24725H42.4627Z" fill="white"/>
<path d="M40.6445 130L11.829 116.684L11.8981 116.118C11.8981 115.993 11.8981 115.883 11.9327 115.773C11.9551 115.526 11.9921 115.28 12.0433 115.038L12.5826 112.635C15.4171 99.99 18.2609 87.3477 21.1138 74.7077C21.329 73.8241 21.317 72.8952 21.0793 72.0181C20.4432 69.6297 19.8348 67.1973 19.2472 64.8383L19.0813 64.1769L10.7851 117.294H0V116.559C0 116.177 0 115.824 0 115.427C0 114.612 0 113.84 0 113.054C0.207405 109.056 0.435551 105.066 0.69135 101.075C0.83423 98.5325 0.977109 95.9923 1.11999 93.4545C1.2306 91.4189 1.33431 89.3906 1.4311 87.355C1.6385 83.2103 1.85282 78.926 2.16393 74.7077C2.62022 68.5201 3.15947 62.2148 3.6849 56.1447C3.91996 53.4036 4.16193 50.6699 4.37625 47.9361L4.83945 42.667C5.5308 34.2306 6.28438 25.5076 6.97573 16.9463C6.98659 16.4893 7.13081 16.0472 7.38844 15.6812C7.64607 15.3152 8.00437 15.0434 8.41374 14.9033C10.5431 13.9627 12.6725 13 14.7949 12.0447C19.2126 10.0531 23.7825 7.99548 28.3108 6.09949C30.3088 5.26173 30.8965 3.6009 31.5809 1.69022C31.7261 1.30073 31.8643 0.896552 32.0234 0.507066L32.1962 0H34.4154L33.7241 1.15376C33.7441 1.24599 33.7695 1.3368 33.8001 1.42566C33.854 1.55571 33.8957 1.6911 33.9246 1.82985C34.1804 2.94686 34.45 4.03448 34.7196 5.18089C35.2243 7.29734 35.7566 9.48728 36.1023 11.6772C37.1324 17.5562 38.1003 23.5969 39.0406 29.4172C39.4369 31.8668 39.8333 34.3164 40.2297 36.766C41.6124 45.2024 42.9951 53.6363 44.3778 62.0678L44.9378 64.9265L47.1985 51.1328C47.6133 48.6 48.0258 46.0671 48.436 43.5342C49.3693 37.7654 50.3372 31.7761 51.3328 25.9486C51.6416 24.0869 51.9389 22.2276 52.2246 20.3708C52.9574 15.7044 53.711 10.8689 54.8587 6.18768C54.9762 5.71001 55.1006 5.23968 55.232 4.76936C55.6485 3.46478 55.9063 2.10897 55.9994 0.734878V0H57.7969L57.866 0.668739C58.0118 1.45666 58.3032 2.206 58.7233 2.87337C59.028 3.40619 59.2871 3.96694 59.4976 4.5489C59.5924 4.79437 59.739 5.01345 59.9259 5.18927C60.1129 5.36509 60.3354 5.49296 60.5761 5.56303C64.2633 7.18956 67.9344 8.82589 71.5893 10.472C74.8663 11.9418 78.141 13.3993 81.4134 14.8445C81.8517 14.9887 82.2327 15.2834 82.4967 15.6823C82.7606 16.0812 82.8927 16.5619 82.8722 17.0492C83.0035 19.2538 83.1971 21.4585 83.3907 23.5969L84.1996 32.9593C84.6006 37.5596 84.9946 42.1649 85.3818 46.775C85.6099 49.4206 85.8173 52.0735 86.0247 54.7264C86.3704 59.0181 86.7161 63.4568 87.1171 67.8072C87.5803 72.8485 87.8499 77.978 88.1126 82.931C88.2301 85.0916 88.3408 87.2521 88.4721 89.42C88.7671 94.4123 89.0505 99.4046 89.3225 104.397C89.4654 107.131 89.6105 109.872 89.758 112.62L90 117.323H79.0075L70.7113 64.0961C70.2089 66.1244 69.6996 68.1526 69.1834 70.1809L68.4921 72.944C68.4233 73.226 68.4233 73.5219 68.4921 73.8038C71.027 85.072 73.562 96.3401 76.0969 107.608C76.5256 109.519 76.9473 111.422 77.3759 113.348L78.0673 116.633L49.155 130L44.8963 107.821L40.6445 130ZM13.3707 115.743L39.642 127.869L44.1704 104.22L45.6568 104.007L50.199 127.869L76.4703 115.743L76.0209 113.7C75.5923 111.775 75.1705 109.864 74.7419 107.961C72.2162 96.6929 69.6812 85.4247 67.137 74.1566C67.0091 73.6287 67.0091 73.0751 67.137 72.5472L67.8284 69.7914C68.5197 66.9915 69.2111 64.1916 69.9439 61.3991C70.1029 60.4144 70.1168 60.3703 70.1306 60.3115L70.2965 59.7897H70.815C71.3543 59.7897 71.5064 60.2894 71.6377 60.6936V60.8112L80.1967 115.824H88.4929L88.3269 112.716C88.1818 109.967 88.0435 107.233 87.8914 104.5C87.6195 99.5074 87.336 94.5152 87.041 89.5229C86.9097 87.3624 86.799 85.1945 86.6815 83.0339C86.4257 78.0882 86.1561 72.9734 85.6929 67.9689C85.2919 63.6037 84.9393 59.1504 84.6006 54.866C84.3932 52.2205 84.1788 49.5725 83.9576 46.922C83.5704 42.3119 83.1764 37.7091 82.7754 33.1136L81.9665 23.7513C81.7729 21.5907 81.5724 19.342 81.448 17.1374C81.448 16.5936 81.3236 16.4613 80.8603 16.2555C77.5833 14.7858 74.3063 13.316 71.0293 11.8462C67.3421 10.205 63.6734 8.57113 60.023 6.9446C59.5998 6.79256 59.2128 6.54412 58.8892 6.21664C58.5656 5.88916 58.3131 5.49054 58.1495 5.04862C57.9626 4.53689 57.7311 4.04484 57.4581 3.57886C57.3337 3.35839 57.2162 3.13058 57.0986 2.90277C56.9465 3.63765 56.746 4.37253 56.5456 5.10741C56.4211 5.57038 56.2967 6.026 56.1791 6.48163C55.0522 11.104 54.3056 15.9028 53.5797 20.5399C53.2893 22.4064 52.9897 24.2706 52.6809 26.1323C51.6854 32.0113 50.7175 37.9418 49.7841 43.7106C49.3693 46.2386 48.9568 48.7714 48.5466 51.3092L45.8504 67.9689C45.8287 68.0991 45.7963 68.2269 45.7536 68.351L44.8617 71.8344L44.0943 68.7185L43.7003 66.3742C43.4744 65.0171 43.244 63.6576 43.0089 62.2956C41.6262 53.869 40.2435 45.4351 38.8608 36.9938C38.4598 34.5442 38.0635 32.0946 37.6717 29.645C36.7315 23.8321 35.7636 17.8208 34.7334 11.9197C34.367 9.78123 33.8416 7.62069 33.3507 5.52629C33.1295 4.60034 32.9014 3.66704 32.6594 2.73375C31.968 4.61504 31.1315 6.46693 28.7878 7.45167C24.2664 9.34031 19.7104 11.3906 15.3065 13.3748C13.1771 14.3546 11.0455 15.31 8.91151 16.2408C8.46213 16.4466 8.37917 16.5495 8.3446 17.0198C7.65325 25.6032 6.9619 34.3335 6.21524 42.7773L5.80734 48.0464C5.5792 50.7874 5.33723 53.5212 5.11599 56.2623C4.59057 62.3397 4.05131 68.623 3.59502 74.8106C3.28391 78.9994 3.07651 83.2764 2.90367 87.4138C2.79997 89.4494 2.70318 91.485 2.58565 93.5206C2.44738 96.0535 2.30681 98.5938 2.16393 101.141C1.93348 105.134 1.70303 109.127 1.47258 113.12C1.4311 113.855 1.47258 114.59 1.47258 115.391C1.47258 115.516 1.47258 115.648 1.47258 115.78H9.60977L18.1065 61.1713V60.9949L18.1479 60.9288L18.9153 55.4833L19.9593 61.8547L20.6506 64.4782C21.2383 66.8298 21.8467 69.255 22.4758 71.636C22.7768 72.7525 22.7959 73.9336 22.5311 75.0605C19.6689 87.7004 16.8229 100.343 13.9929 112.988L13.426 115.376C13.4009 115.497 13.3824 115.62 13.3707 115.743ZM66.8605 40.7858H65.6783C64.4528 40.7819 63.2785 40.2627 62.4119 39.3415C61.5453 38.4204 61.0568 37.1721 61.0532 35.8694C61.0438 35.5288 61.1613 35.198 61.38 34.949C61.5988 34.6999 61.9012 34.5527 62.2215 34.5393H70.255C70.4145 34.5393 70.5724 34.5728 70.7196 34.6379C70.8669 34.703 71.0006 34.7984 71.113 34.9186C71.2254 35.0388 71.3144 35.1814 71.3748 35.3383C71.4352 35.4952 71.4658 35.6632 71.4649 35.8327C71.4649 37.1334 70.9807 38.3814 70.118 39.3039C69.2553 40.2264 68.0842 40.7486 66.8605 40.7564V40.7858ZM62.4635 36.0899C62.5231 36.9508 62.8884 37.7555 63.4853 38.3409C64.0822 38.9263 64.8662 39.2486 65.6783 39.2425H66.8882C67.7007 39.2407 68.4823 38.9112 69.0752 38.3206C69.668 37.73 70.0279 36.9222 70.0822 36.0605L62.4635 36.0899Z" fill="white"/>
</svg>
