<svg width="90" height="130" viewBox="0 0 90 130" fill="none" xmlns="http://www.w3.org/2000/svg">
<g clip-path="url(#clip0_97_34)">
<path d="M89.8989 117.367C89.9613 117.228 89.9937 117.077 89.9937 116.925C89.9937 116.772 89.9613 116.621 89.8989 116.482L61.5044 50.3484C60.2383 47.6295 59.4094 44.7229 59.0492 41.7388C58.4253 36.5875 58.9762 31.3599 60.6595 26.458C61.7076 23.3034 62.3579 20.0272 62.5949 16.7073L63.5481 4.29397C63.565 4.073 63.5135 3.85218 63.401 3.66213C63.2884 3.47208 63.1202 3.32222 62.9198 3.23331L55.8356 0.0879159C55.777 0.0507789 55.7139 0.0212868 55.6479 0.000137363C55.5591 -0.0104625 55.4695 -0.0104625 55.3807 0.000137363H55.3157C55.2366 0.00584809 55.1588 0.0230941 55.0846 0.0513415C55.0024 0.0851353 54.9248 0.129379 54.8535 0.183009C50.5496 3.43813 47.4589 4.78407 44.4475 4.72555H44.397C41.4073 4.77675 38.2733 3.43813 34.0632 0.212269C33.9895 0.158561 33.9094 0.114333 33.8249 0.080601H33.7888C33.7094 0.0401334 33.624 0.0129604 33.536 0.000137363H33.471C33.3871 -0.0101288 33.3022 -0.0101288 33.2183 0.000137363C33.1537 0.0154983 33.0907 0.0375591 33.0305 0.0659713L25.9175 3.21137C25.7106 3.29911 25.5368 3.4514 25.4212 3.64609C25.3056 3.84078 25.2543 4.06774 25.2748 4.29397L26.228 16.7293C26.4737 20.0408 27.1237 23.3086 28.1633 26.458C29.8564 31.3576 30.4172 36.5853 29.8026 41.7388C29.4413 44.7283 28.61 47.6398 27.3401 50.3631C27.1235 50.8385 6.21036 98.3121 0.187732 112.364L0.0794118 112.649C0.0169439 112.792 -0.0135768 112.947 -0.00996728 113.104C-0.00635777 113.26 0.0312928 113.413 0.100291 113.553C0.16929 113.693 0.267931 113.815 0.38916 113.912C0.510389 114.009 0.65121 114.077 0.801549 114.112L12.6374 117.477L10.6732 124.207C10.6342 124.344 10.6225 124.488 10.6386 124.63C10.6547 124.771 10.6984 124.909 10.767 125.033C10.8352 125.157 10.9272 125.265 11.0377 125.352C11.1481 125.439 11.2746 125.502 11.4097 125.538L27.9034 130.015C27.9907 130.038 28.0804 130.05 28.1706 130.051C28.4246 130.052 28.6703 129.96 28.8627 129.792C29.0551 129.624 29.1811 129.392 29.2177 129.137L29.6076 125.816L42.6061 127.103H42.7072C42.9819 127.104 43.2458 126.995 43.4427 126.801C43.6396 126.607 43.754 126.343 43.7615 126.065L43.8265 123.073L58.6159 121.698L59.2297 126.189C59.2497 126.335 59.2991 126.475 59.3749 126.601C59.4507 126.727 59.5512 126.836 59.6702 126.921C59.8489 127.044 60.0603 127.111 60.2768 127.111H60.5007L74.2718 124.068C74.5497 124.003 74.791 123.829 74.9434 123.585C75.0181 123.463 75.0675 123.327 75.0886 123.184C75.1097 123.042 75.102 122.897 75.0662 122.758L74.8856 122.027L89.1767 117.967C89.3206 117.924 89.4541 117.851 89.5685 117.753C89.6829 117.655 89.7757 117.533 89.8411 117.397M44.4259 6.85418C47.3939 6.9127 50.3257 5.87398 53.9581 3.41619C52.1889 10.4897 46.0146 13.657 44.4187 14.3885C42.8516 13.657 36.6557 10.5262 34.8864 3.41619C38.5188 5.85204 41.4651 6.92001 44.4259 6.85418ZM28.315 16.5391L27.4412 4.88648L32.5973 2.60423C34.2943 12.6622 43.7471 16.5903 44.4475 16.5903C44.5708 16.5903 44.6931 16.568 44.8086 16.5244C45.2202 16.3708 54.6008 12.7792 56.2978 2.62618L61.4467 4.90842L60.5295 16.5391C60.3012 19.6817 59.685 22.783 58.6953 25.7705C56.9042 30.9715 56.309 36.5181 56.955 41.9875C56.955 42.1777 57.0127 42.3606 57.0344 42.5508C54.5886 43.7701 52.0164 44.7098 49.3653 45.3524H49.2859C49.2259 45.3447 49.1653 45.3447 49.1053 45.3524C47.6803 45.654 46.2283 45.806 44.7725 45.8059C44.7126 45.7982 44.6519 45.7982 44.592 45.8059H44.4692C42.9728 45.7805 41.4827 45.6041 40.0208 45.2792L39.8403 45.2353C37.0907 44.5764 34.4073 43.6605 31.8246 42.4996C31.8246 42.324 31.8751 42.1485 31.8968 41.9729C32.5463 36.5035 31.951 30.9561 30.1564 25.7558C29.1654 22.7734 28.5468 19.6771 28.315 16.5391ZM2.49135 112.364C8.94004 97.3685 29.0516 51.7236 29.2465 51.2701C30.2098 49.1648 30.9365 46.9565 31.413 44.6867C32.1351 44.9866 32.8572 45.2719 33.5216 45.5352L13.1934 115.385L2.49135 112.364ZM12.9985 123.717L14.9554 116.994L35.5364 46.2375C36.5618 46.5813 37.5583 46.8812 38.5188 47.1226L27.2607 127.586L12.9985 123.717ZM29.9687 123.717L40.5769 47.5468C41.5324 47.7206 42.4968 47.8403 43.4654 47.9053L41.7395 124.85L29.9687 123.717ZM43.9709 120.944L45.6318 47.9784C46.6189 47.9422 47.6029 47.8445 48.5782 47.6858L58.4209 119.606L43.9709 120.944ZM61.2517 124.785L60.6595 120.696C60.6705 120.611 60.6705 120.525 60.6595 120.44C60.6471 120.325 60.6154 120.214 60.5657 120.11L50.6074 47.2104C51.5462 46.9763 52.5066 46.6837 53.4959 46.3326L72.8131 122.159L61.2517 124.785ZM74.4162 119.964L55.4746 45.5645C56.1101 45.3085 56.7528 45.0232 57.4171 44.716C57.8938 46.9597 58.6206 49.1414 59.5835 51.2189L87.4942 116.212L74.4162 119.964Z" fill="white"/>
</g>
<defs>
<clipPath id="clip0_97_34">
<rect width="90" height="130" fill="white"/>
</clipPath>
</defs>
</svg>
