<svg width="25" height="25" viewBox="0 0 25 25" fill="none" xmlns="http://www.w3.org/2000/svg">
<g clip-path="url(#clip0_125_150)">
<path d="M21.3135 3.63281C18.9746 1.28906 15.8643 0 12.5488 0C5.72266 0 0.166016 5.55664 0.166016 12.3877C0.166016 14.5703 0.737305 16.7041 1.82129 18.5791L0.0634766 25L6.63086 23.2764C8.44238 24.2627 10.4785 24.7852 12.5488 24.7852H12.5537C19.3799 24.7852 24.9414 19.2285 24.9414 12.3975C24.9414 9.08691 23.6523 5.97656 21.3135 3.63281ZM12.5537 22.6953C10.7031 22.6953 8.8916 22.1973 7.30957 21.2598L6.93359 21.0352L3.03711 22.0557L4.07715 18.2568L3.83301 17.8662C2.79785 16.2305 2.25586 14.3359 2.25586 12.3877C2.25586 6.70898 6.875 2.08984 12.5586 2.08984C15.3076 2.08984 17.8955 3.16406 19.8389 5.10742C21.7822 7.05566 22.8516 9.63867 22.8516 12.3926C22.8467 18.0762 18.2275 22.6953 12.5537 22.6953ZM18.1982 14.9805C17.8906 14.8242 16.3672 14.0771 16.084 13.9746C15.8008 13.8721 15.5957 13.8184 15.3857 14.1309C15.1807 14.4385 14.585 15.1367 14.4043 15.3467C14.2236 15.5518 14.043 15.5811 13.7354 15.4248C13.4277 15.2686 12.4268 14.9414 11.2451 13.8867C10.3271 13.0664 9.70215 12.0508 9.52148 11.7432C9.34082 11.4355 9.50195 11.2646 9.6582 11.1133C9.7998 10.9766 9.96582 10.752 10.1221 10.5713C10.2783 10.3906 10.3271 10.2637 10.4297 10.0537C10.5322 9.84863 10.4834 9.66797 10.4053 9.51172C10.3271 9.35547 9.70703 7.83203 9.45313 7.21191C9.2041 6.60645 8.94531 6.68945 8.75488 6.67969C8.57422 6.66992 8.36914 6.66992 8.16406 6.66992C7.95898 6.66992 7.62207 6.74805 7.33887 7.05566C7.05566 7.36328 6.25488 8.11523 6.25488 9.63867C6.25488 11.1621 7.36328 12.6318 7.51953 12.8418C7.67578 13.0469 9.70215 16.1768 12.8076 17.5146C13.5449 17.832 14.1211 18.0225 14.5703 18.1689C15.3125 18.4033 15.9863 18.3691 16.5186 18.291C17.1143 18.2031 18.3496 17.5439 18.6084 16.8213C18.8672 16.0986 18.8672 15.4785 18.7891 15.3516C18.7158 15.2148 18.5107 15.1367 18.1982 14.9805Z" fill="#25D366"/>
</g>
<defs>
<clipPath id="clip0_125_150">
<rect width="25" height="25" fill="white"/>
</clipPath>
</defs>
</svg>
