<svg width="50" height="50" viewBox="0 0 40 40" fill="none" xmlns="http://www.w3.org/2000/svg">
<g clip-path="url(#clip0_111_135)">
<path d="M39.6222 14.1764C39.6222 14.0561 39.6481 13.9359 39.6568 13.8087C39.6222 13.8087 39.5962 13.8397 39.5616 13.8568C39.4347 13.9187 39.3078 13.9908 39.1722 14.0561L38.9559 14.1661L38.8578 14.2142C38.8578 14.2142 38.8434 14.2142 38.8376 14.2142L38.7886 14.2382L38.728 14.2691C38.131 14.5646 37.5195 14.8292 36.908 15.0869C36.2965 15.3446 35.6187 15.6057 34.9726 15.8634C34.3265 16.1211 33.6833 16.3753 33.0314 16.6227C32.3796 16.8701 31.7421 17.1278 31.1018 17.382C30.4615 17.6363 29.7866 17.9283 29.1318 18.21C28.4771 18.4918 27.8367 18.7495 27.1993 19.0449C27.0032 19.1308 26.807 19.227 26.6224 19.3233H26.6426C26.0232 19.6239 25.4193 19.9681 24.8342 20.354C24.7274 20.4262 24.6265 20.5052 24.5198 20.5773C24.4736 20.6186 24.4188 20.6495 24.3727 20.6907L24.3121 20.7285C24.2793 20.9061 24.236 21.0806 24.1823 21.2508C24.1223 21.4578 24.053 21.6608 23.9746 21.8589C23.9009 22.0567 23.8161 22.2484 23.7208 22.4327C23.6718 22.5289 23.6256 22.6251 23.5708 22.7144C23.5506 22.7453 23.5391 22.7694 23.5189 22.8038C23.565 22.8519 23.6054 22.9068 23.6516 22.9618C23.7468 23.0821 23.8333 23.2023 23.9198 23.3226C24.1015 23.5803 24.2775 23.8414 24.4592 24.0991C24.6409 24.3568 24.8226 24.6282 25.0101 24.8824C25.1976 25.1367 25.3793 25.4047 25.561 25.6589C25.9446 26.1881 26.334 26.7172 26.7147 27.236L27.831 28.7477C28.1858 29.2047 28.5549 29.727 28.8924 30.2355C29.0684 30.4932 29.2414 30.7405 29.4174 30.9879C29.5933 31.2353 29.7664 31.493 29.9394 31.7472C30.2827 32.2523 30.6259 32.778 30.9547 33.2865C31.122 33.5476 31.2922 33.8053 31.4595 34.0699C31.6268 34.3344 31.8085 34.599 31.9844 34.8601C32.3248 35.3823 32.668 35.8909 33.0257 36.3994C33.3141 36.7979 33.6025 37.2068 33.891 37.5813C33.9248 37.6164 33.9566 37.6543 33.9862 37.6947C34.0063 37.6397 34.0265 37.5916 34.0467 37.5332C34.0467 37.5332 34.0467 37.5091 34.0467 37.5023C34.1592 37.1827 34.2688 36.8632 34.3611 36.5334C34.4765 36.1348 34.589 35.7259 34.6986 35.3274C34.8082 34.9288 34.9322 34.4547 35.0476 34.0218C35.163 33.5888 35.2697 33.1903 35.3764 32.7642C35.4168 32.5959 35.4572 32.4207 35.4976 32.2695C35.4976 32.2695 35.4976 32.2695 35.4976 32.2523C35.6043 31.7988 35.7052 31.3487 35.786 30.878C35.8667 30.4073 35.9735 29.94 36.0744 29.4693C36.1754 28.9986 36.2619 28.5485 36.3629 28.0949L36.6513 26.6381C36.8445 25.6967 37.0551 24.7587 37.2685 23.8139C37.3753 23.3329 37.4906 22.8622 37.5974 22.3811C37.7041 21.9001 37.7993 21.5016 37.906 21.0618C38.1079 20.196 38.3357 19.3439 38.5665 18.4918C38.7972 17.6397 39.0424 16.7945 39.2501 15.939C39.3251 15.6332 39.3856 15.3308 39.4462 15.025C39.5211 14.7473 39.5798 14.4637 39.6222 14.1764ZM33.7468 38.3303C33.791 38.2423 33.8314 38.1518 33.8679 38.0589L33.8391 38.0348C33.6785 37.8548 33.5263 37.6644 33.3833 37.4645C33.2074 37.2343 33.0343 36.9938 32.867 36.7532C32.5094 36.2482 32.1661 35.7225 31.8171 35.2174C31.6441 34.9529 31.4624 34.6814 31.2864 34.4169L30.7903 33.6473C30.4528 33.1353 30.1183 32.6165 29.775 32.1183C29.602 31.8572 29.4202 31.5995 29.2443 31.3418C29.0684 31.0841 28.8953 30.847 28.728 30.5997C28.379 30.0946 28.0271 29.5689 27.6666 29.0879C27.306 28.6069 26.9051 28.0571 26.5128 27.5349C26.1206 27.0127 25.7687 26.5248 25.3822 26.0128L24.8053 25.2191C24.6149 24.958 24.4275 24.6935 24.2457 24.4289C24.064 24.1643 23.891 23.9067 23.715 23.6524C23.6285 23.5253 23.542 23.405 23.4526 23.2848C23.4064 23.2195 23.3603 23.1645 23.3112 23.0992C23.2708 23.1542 23.2391 23.2195 23.1987 23.2745L23.0286 23.515L22.8353 23.7692C22.7661 23.8586 22.694 23.9376 22.6276 24.02C22.5613 24.1025 22.4315 24.2365 22.3392 24.3396C22.2469 24.4426 22.1315 24.5388 22.0248 24.6351L21.7969 24.8275C21.7162 24.8893 21.6412 24.9477 21.5604 25.0027C21.4797 25.0577 21.3874 25.1229 21.2922 25.1779L21.0643 25.3153C20.8567 25.4319 20.6404 25.5251 20.4182 25.5937C20.3771 25.6122 20.3346 25.626 20.2913 25.6349C20.2452 25.6521 20.1904 25.6589 20.1442 25.6761C20.0548 25.7002 19.9625 25.7139 19.8731 25.7311C19.7837 25.7483 19.6856 25.7551 19.5847 25.762C19.4895 25.762 19.3972 25.762 19.2962 25.762C19.1026 25.7588 18.9096 25.7358 18.7194 25.6933C18.6242 25.6692 18.5376 25.6452 18.4309 25.6108C18.3242 25.5765 18.2579 25.5318 18.1684 25.4906C18.1281 25.4665 18.0877 25.4425 18.056 25.4184C18.0123 25.3926 17.9716 25.3603 17.9348 25.3222C17.8596 25.2587 17.79 25.1861 17.7271 25.1058C17.5959 24.9558 17.4726 24.7963 17.3579 24.6282C17.2368 24.4598 17.1214 24.2846 17.0147 24.1162C16.908 23.9479 16.7984 23.7727 16.6974 23.5871C16.5965 23.4016 16.4955 23.2092 16.409 23.0099C16.3686 22.9137 16.3282 22.8175 16.2965 22.7213L16.1869 22.4258L16.0802 21.9895L16.06 21.9414C16.0545 21.9191 16.0478 21.8973 16.0398 21.8761C15.9648 21.6768 15.8985 21.4706 15.8379 21.2611C15.7773 21.0515 15.7254 20.8453 15.6764 20.6357C15.6562 20.5327 15.6302 20.4296 15.6158 20.3231C15.6014 20.2166 15.5754 20.1101 15.5639 19.9967C15.5317 19.7694 15.5115 19.5398 15.5033 19.3095C15.5033 19.2477 15.5033 19.1893 15.5033 19.1274H15.4514C15.1428 19.2339 14.8313 19.3542 14.5313 19.4882C14.2313 19.6222 13.8448 19.7768 13.5247 19.928C12.8872 20.2234 12.2498 20.5121 11.6123 20.8144C11.0355 21.0858 10.4586 21.3676 9.88174 21.6459C9.59331 21.7902 9.28468 21.9448 8.9876 22.1028L8.0473 22.6079C7.41563 22.9515 6.79262 23.3191 6.16671 23.6868C5.54081 24.0544 4.93799 24.4083 4.32651 24.7759C3.71503 25.1436 3.12374 25.5043 2.52668 25.8891C2.32478 26.0266 2.11422 26.1537 1.9152 26.298C1.67292 26.456 1.44217 26.6278 1.23161 26.7996C1.02106 26.9714 0.819152 27.1432 0.625901 27.3013C0.530718 27.3906 0.438419 27.4799 0.337468 27.5761C0.357658 27.6242 0.377848 27.662 0.398039 27.7101C0.452841 27.8132 0.513412 27.9197 0.573983 28.0159C0.676795 28.177 0.788574 28.3297 0.908567 28.4729C1.08544 28.6784 1.27331 28.8701 1.47101 29.0467C1.8095 29.3548 2.16402 29.6371 2.53245 29.8919C2.84973 30.1186 3.16989 30.3248 3.50159 30.5275C3.83329 30.7302 4.14479 30.9192 4.47361 31.1116C4.80242 31.304 5.16585 31.5033 5.51485 31.6957L6.58494 32.2695C6.72628 32.3416 6.87338 32.4138 7.00894 32.4962C7.02225 32.4997 7.03602 32.4997 7.04932 32.4962C7.07443 32.5072 7.09858 32.521 7.12143 32.5375C7.85405 32.912 8.59244 33.259 9.34526 33.5682C9.63369 33.6782 9.89616 33.7847 10.1731 33.8878C10.45 33.9908 10.7499 34.087 11.0384 34.1901C11.7854 34.4409 12.5382 34.6883 13.2824 34.9529C14.0265 35.2174 14.814 35.5026 15.5898 35.8084L16.9743 36.3616L17.6983 36.6502C17.9492 36.7464 18.1973 36.8323 18.4396 36.9113C19.2731 37.193 20.1183 37.4164 20.9663 37.65C21.8143 37.8836 22.5988 38.0898 23.4179 38.2891C24.2371 38.4883 25.0245 38.6326 25.8292 38.8182L26.957 39.0484C27.3954 39.1446 27.8223 39.2339 28.2694 39.3233C28.5838 39.3851 28.8924 39.4435 29.2097 39.4985C29.527 39.5535 29.7866 39.5947 30.075 39.6256C30.3634 39.6565 30.6778 39.6806 30.9749 39.6806C31.1364 39.6806 31.298 39.6806 31.4566 39.6806C31.6152 39.6806 31.745 39.6565 31.9094 39.6325L32.1834 39.5844L32.4719 39.5122C32.593 39.471 32.7084 39.4229 32.8209 39.3748L32.9622 39.3026C33.0107 39.2774 33.0579 39.2488 33.1035 39.2167C33.1584 39.1755 33.2103 39.1343 33.2651 39.0862C33.3149 39.0395 33.3621 38.989 33.4064 38.935C33.467 38.8628 33.5218 38.7838 33.5823 38.7048C33.6218 38.5712 33.6772 38.4451 33.7468 38.3303ZM0.288434 27.1192L0.464378 26.9577C0.585521 26.8443 0.712432 26.7412 0.839342 26.6141C1.10182 26.4011 1.37871 26.1984 1.65273 26.006C2.22959 25.6074 2.82954 25.2295 3.42659 24.8618C4.02365 24.4942 4.65532 24.1197 5.27545 23.7589C5.89559 23.3982 6.50995 23.0305 7.13585 22.6766L8.05596 22.1578C8.36458 21.9895 8.65301 21.8348 8.97029 21.6734C9.60196 21.347 10.2336 21.0412 10.8711 20.7388C11.5085 20.4365 12.1431 20.1479 12.7747 19.8489C13.0949 19.7046 13.4122 19.5535 13.7352 19.4091C14.0583 19.2648 14.3669 19.1205 14.687 18.9865C14.8486 18.9213 15.0187 18.8594 15.186 18.801L15.4399 18.7289H15.4687C15.4687 18.6739 15.4687 18.6258 15.4687 18.5674C15.4687 18.509 15.4831 18.3681 15.4947 18.2719C15.4775 18.2495 15.462 18.2254 15.4485 18.1997C15.4226 18.1688 15.4024 18.1276 15.3735 18.0967C15.3014 17.9936 15.2264 17.8871 15.1543 17.7771L14.6755 17.0556C14.6698 17.0434 14.663 17.0319 14.6553 17.0212C14.3063 16.4749 13.9573 15.9252 13.6198 15.372C13.2824 14.8189 12.9363 14.2279 12.5988 13.6541C12.2613 13.0803 11.921 12.5272 11.5777 11.9671C11.2345 11.4071 10.874 10.8299 10.5163 10.2492L9.89328 9.26656L9.78367 9.0982C9.46063 8.5897 9.13758 8.10868 8.82896 7.6208C8.78858 7.56582 8.75685 7.50054 8.71647 7.44557C8.67609 7.39059 8.64148 7.32531 8.6011 7.27034V7.25316C8.6011 7.25316 8.58091 7.22224 8.57225 7.21193C8.57225 7.21193 8.54053 7.16383 8.5261 7.13978L7.99539 6.30831C7.81944 6.03688 7.65215 5.76544 7.49063 5.48371C7.17623 4.95459 6.85896 4.4186 6.53879 3.88948C6.409 3.68333 6.28209 3.47374 6.15518 3.26759C6.08595 3.15421 6.01385 3.05113 5.94751 2.92401C5.92732 2.89996 5.91289 2.86903 5.8927 2.84498C5.87251 2.89309 5.85809 2.94119 5.8379 2.98242C5.68503 3.4119 5.54947 3.86199 5.41679 4.30178C5.28411 4.74157 5.18027 5.17448 5.05913 5.6074C4.81108 6.51102 4.56879 7.41464 4.32074 8.31827C4.18517 8.79929 4.0525 9.2803 3.91693 9.76132C3.78137 10.2423 3.66311 10.6787 3.52755 11.1357C3.27084 12.0427 2.99683 12.936 2.75454 13.8431C2.55264 14.5852 2.35074 15.3377 2.16325 16.0901C1.97577 16.8426 1.75945 17.6603 1.58639 18.4506C1.48543 18.8835 1.39314 19.3164 1.29795 19.7493C1.20277 20.1822 1.12489 20.6357 1.03548 21.0858C0.946063 21.5359 0.873954 21.9826 0.801846 22.4361C0.729738 22.8896 0.61148 23.2607 0.559562 23.7074C0.464378 24.4839 0.383617 25.2672 0.343236 26.0609C0.323046 26.4045 0.302856 26.7584 0.288434 27.1192ZM23.5968 21.9001C23.6516 21.7799 23.6977 21.6596 23.7468 21.5325C23.8275 21.2989 23.8996 21.0652 23.9602 20.8281C23.9804 20.7216 24.0006 20.6254 24.015 20.5224C24.0294 20.4193 24.015 20.3712 24.0352 20.2887C24.0395 20.2121 24.0395 20.1352 24.0352 20.0585C24.0352 20.0173 24.0352 19.9795 24.0352 19.9383C24.0283 19.8917 24.0187 19.8458 24.0063 19.8008C23.9862 19.7287 23.966 19.6668 23.9458 19.5947C23.9283 19.5416 23.9061 19.4909 23.8794 19.4435C23.8794 19.4435 23.8794 19.4435 23.8794 19.4676C23.8735 19.4533 23.8668 19.4395 23.8592 19.4263C23.8304 19.3714 23.7987 19.3164 23.7641 19.258C23.7414 19.2213 23.7163 19.1869 23.6891 19.1549L23.6025 19.0587C23.5826 19.037 23.5603 19.0185 23.5362 19.0037L23.467 18.9556C23.4266 18.9316 23.3804 18.8972 23.3401 18.8766C23.2941 18.8535 23.2469 18.834 23.1987 18.8182C23.1455 18.8019 23.0916 18.7893 23.0372 18.7804C23.0055 18.7804 22.9651 18.7804 22.9305 18.7804C22.8921 18.7768 22.8535 18.7768 22.8151 18.7804H22.7026C22.6642 18.777 22.6257 18.777 22.5873 18.7804C22.5358 18.7885 22.4848 18.8 22.4344 18.8147C22.3866 18.8237 22.3394 18.8363 22.2931 18.8525C22.1661 18.8938 22.045 18.9487 21.9239 19.0037C21.7649 19.0849 21.6098 19.1767 21.4595 19.2786C21.3585 19.3507 21.2576 19.4298 21.171 19.5191C21.0966 19.5825 21.027 19.6538 20.9634 19.7321C20.9288 19.7733 20.897 19.8146 20.8624 19.8627V19.9245C20.8593 19.9664 20.8452 20.0061 20.822 20.0379C20.8026 20.0627 20.7776 20.0804 20.75 20.0889C20.7224 20.0975 20.6934 20.0964 20.6663 20.086C20.6452 20.0756 20.6262 20.0602 20.6103 20.0407C20.5944 20.0212 20.5821 19.998 20.574 19.9726C20.574 19.9726 20.574 19.9348 20.574 19.9177C20.5626 19.8917 20.5567 19.8628 20.5567 19.8335C20.5567 19.8042 20.5626 19.7753 20.574 19.7493C20.5624 19.6328 20.5422 19.5179 20.5134 19.4057L20.4355 19.0931C20.4069 18.9877 20.3732 18.8845 20.3346 18.7838C20.274 18.6155 20.2134 18.4402 20.1442 18.2856C20.075 18.131 20.0115 17.9833 19.9423 17.8287C19.8796 17.6951 19.8082 17.5676 19.7289 17.4473C19.7289 17.4473 19.7289 17.4473 19.7433 17.4473L19.7231 17.4232L19.6423 17.303L19.6222 17.2789C19.5551 17.2012 19.4838 17.1289 19.4087 17.0625L19.253 16.925C19.201 16.8872 19.1462 16.846 19.0914 16.7979C19.0228 16.7478 18.9515 16.7031 18.878 16.6639C18.803 16.6158 18.7309 16.5815 18.6559 16.5437C18.5922 16.5088 18.5267 16.479 18.4598 16.4543L18.2723 16.3822L18.1194 16.3341C18.0646 16.3341 18.0098 16.31 17.9579 16.2928L17.8079 16.2688C17.7541 16.2653 17.7002 16.2653 17.6464 16.2688H17.5079C17.4576 16.2694 17.4074 16.2751 17.3579 16.286C17.2833 16.2973 17.2091 16.3134 17.1359 16.3341C17.1205 16.3353 17.1051 16.3353 17.0897 16.3341C17.0866 16.3323 17.0831 16.3313 17.0796 16.3313C17.0761 16.3313 17.0727 16.3323 17.0695 16.3341L16.9945 16.3581C16.9714 16.3667 16.9492 16.3782 16.9282 16.3925L16.8417 16.4406C16.807 16.4406 16.7811 16.4784 16.7465 16.4956C16.7119 16.5127 16.6859 16.5368 16.6599 16.5608L16.5792 16.633C16.559 16.633 16.5388 16.6708 16.5186 16.688C16.4984 16.7051 16.484 16.7292 16.4638 16.7429C16.4394 16.7702 16.4172 16.8001 16.3975 16.8323C16.3708 16.8649 16.3458 16.8993 16.3225 16.9353L16.2619 17.0315C16.2418 17.0732 16.2197 17.1133 16.1956 17.1518C16.1751 17.1904 16.1568 17.2306 16.1408 17.2721C16.1206 17.3202 16.109 17.3614 16.0888 17.4095C16.0686 17.4576 16.0485 17.5263 16.0283 17.5916C16.0081 17.6569 15.9937 17.729 15.9735 17.7909L15.9129 18.0726L15.8725 18.3509C15.8725 18.4643 15.8523 18.5777 15.8466 18.6945C15.8408 18.8113 15.8466 18.8938 15.8466 19.0003V19.1755C15.8466 19.2477 15.8466 19.3129 15.8466 19.3851C15.8466 19.4572 15.8667 19.6222 15.8783 19.7287L15.9389 20.1616C15.9389 20.2337 15.9677 20.3128 15.9792 20.3849C15.9908 20.4571 16.0081 20.5052 16.0196 20.5602C16.0312 20.6151 16.0686 20.7629 16.0946 20.8659C16.1206 20.969 16.1408 21.048 16.1754 21.1374C16.2359 21.3298 16.3023 21.5291 16.3715 21.7215C16.3715 21.7215 16.3917 21.7764 16.4003 21.8074C16.409 21.8383 16.4003 21.8074 16.4003 21.7833L16.4292 21.8658C16.4292 21.8658 16.4292 21.8486 16.4292 21.8417C16.4955 22.0341 16.5648 22.2334 16.6369 22.4258C16.6772 22.5289 16.7119 22.632 16.7522 22.7282C16.7926 22.8244 16.833 22.9137 16.8791 23.0099C16.9686 23.1783 17.0551 23.3535 17.1474 23.515C17.2397 23.6765 17.3378 23.8345 17.4358 23.9857C17.5339 24.1369 17.6233 24.2674 17.7243 24.4014C17.8252 24.5354 17.9204 24.666 18.0127 24.7931C18.0733 24.8653 18.1338 24.9374 18.2002 25.0027C18.2365 25.0353 18.2751 25.064 18.3155 25.0886C18.3628 25.1224 18.4119 25.1523 18.4626 25.1779C18.5434 25.2191 18.6184 25.2501 18.6992 25.281L18.8463 25.3291C18.9011 25.3291 18.9616 25.3531 19.0136 25.3703L19.1895 25.3944C19.2558 25.3944 19.3251 25.3944 19.3914 25.3944H19.4577C19.6043 25.3917 19.7506 25.3802 19.8962 25.36L20.1154 25.3222L20.3461 25.2638L20.4269 25.2398L20.6201 25.1676C20.6865 25.1436 20.7557 25.1126 20.822 25.0817L20.9634 25.0096C21.0182 24.9855 21.0643 24.9546 21.1162 24.9305C21.2172 24.8721 21.3181 24.8103 21.4047 24.7381C21.4912 24.666 21.5748 24.6179 21.6527 24.5526C21.7424 24.4875 21.8281 24.4152 21.9094 24.3361C21.944 24.3052 21.9758 24.2812 22.0046 24.2502C22.1772 24.0632 22.3418 23.8659 22.4978 23.6593C22.5844 23.5562 22.6738 23.4428 22.7603 23.3157C22.8468 23.1886 22.9276 23.0821 23.0141 22.9721C23.1007 22.8622 23.1497 22.7557 23.216 22.6457C23.2824 22.5358 23.3516 22.4052 23.4122 22.2849C23.4727 22.1647 23.5362 22.0273 23.5968 21.9001ZM6.1148 2.1853C6.07442 2.26776 6.03404 2.35366 5.99942 2.44299L6.10038 2.5873L6.38881 3.04083C6.55033 3.29164 6.7032 3.54589 6.85896 3.80358C7.01471 4.06127 7.17335 4.33957 7.33487 4.60413C7.4964 4.86869 7.65215 5.14012 7.81367 5.40468C7.9752 5.66924 8.14826 5.94067 8.31555 6.2121C8.4165 6.37359 8.51745 6.53164 8.6184 6.68281C8.65301 6.74122 8.68763 6.78932 8.71935 6.8443L8.75974 6.90958C8.77993 6.93363 8.79435 6.96455 8.81454 6.9886C8.83473 7.01265 8.8953 7.10886 8.93568 7.17414C8.97606 7.23255 9.01067 7.29439 9.05105 7.3528L9.54716 8.10868L10.0317 8.85426C10.3952 9.42117 10.7499 9.98809 11.1076 10.5722C11.4652 11.1563 11.8056 11.6923 12.1488 12.2592C12.4921 12.8261 12.8353 13.3964 13.1699 13.9771C13.5045 14.5577 13.8564 15.1281 14.2054 15.695C14.4275 16.0386 14.6553 16.4131 14.8832 16.767L14.9034 16.791C15.0562 17.0315 15.212 17.2721 15.3735 17.5091C15.4399 17.6053 15.5004 17.7015 15.5668 17.7909C15.5816 17.7153 15.5999 17.6407 15.6216 17.5675C15.6475 17.4645 15.6821 17.3683 15.7168 17.2618C15.7514 17.1552 15.7975 17.0556 15.8437 16.9491C15.8636 16.9015 15.8878 16.8566 15.9158 16.8151L16.0052 16.6708C16.059 16.5889 16.1168 16.5109 16.1783 16.4372L16.2936 16.3169C16.334 16.278 16.3744 16.2436 16.4148 16.2138C16.5699 16.0876 16.7428 15.9957 16.9253 15.9424H16.9051C16.9252 15.9391 16.9456 15.9391 16.9657 15.9424H16.9455C17.1335 15.8823 17.3278 15.8557 17.5224 15.8634C17.5713 15.8599 17.6205 15.8599 17.6695 15.8634C17.7156 15.8634 17.7704 15.8634 17.8166 15.8805C17.9117 15.8805 18.0069 15.9115 18.105 15.9355C18.153 15.9444 18.2003 15.9582 18.2463 15.9767C18.2893 15.9902 18.3316 16.0063 18.3732 16.0248C18.4602 16.054 18.5459 16.0884 18.6299 16.1279C18.7165 16.1657 18.803 16.2138 18.8924 16.2619C18.9818 16.31 19.0539 16.3581 19.1347 16.4165C19.2464 16.4921 19.3534 16.577 19.4549 16.6708C19.5696 16.764 19.6759 16.8711 19.7721 16.9903L19.801 17.0212C19.8327 17.0625 19.8616 17.1003 19.8933 17.1484L19.9019 17.1793L19.9221 17.2136C19.9347 17.2351 19.9482 17.2557 19.9625 17.2755C20.0144 17.3648 20.0548 17.4542 20.1038 17.5401C20.1529 17.6259 20.1961 17.7325 20.2365 17.8287C20.2769 17.9249 20.3259 18.0211 20.3577 18.1173C20.3894 18.2135 20.4327 18.3166 20.473 18.4128C20.5161 18.5246 20.5537 18.6393 20.5855 18.7563C20.6201 18.8594 20.6461 18.9625 20.6749 19.0656C20.6959 19.1422 20.7133 19.2202 20.7269 19.2992C20.7277 19.3175 20.7277 19.3359 20.7269 19.3542C20.7672 19.3164 20.8076 19.2683 20.848 19.227C20.9904 19.0956 21.143 18.9805 21.3037 18.8835L21.5402 18.7392C21.621 18.6911 21.7075 18.6533 21.7941 18.612C21.8806 18.5708 21.97 18.533 22.0652 18.4987C22.1604 18.4643 22.244 18.4437 22.3536 18.4196C22.4018 18.4043 22.451 18.3939 22.5007 18.3887C22.5434 18.3779 22.5869 18.3722 22.6305 18.3715C22.7265 18.3613 22.823 18.3613 22.919 18.3715L23.0805 18.3956L23.2218 18.4368C23.3206 18.4673 23.4171 18.5075 23.5102 18.5571L23.692 18.6773C23.7498 18.7213 23.8039 18.7719 23.8535 18.8285C23.9515 18.9417 24.035 19.0713 24.1015 19.2133C24.1015 19.2133 24.1015 19.2133 24.1015 19.2374C24.1501 19.3392 24.1906 19.4462 24.2227 19.5569C24.2486 19.66 24.2746 19.7733 24.2948 19.8764C24.3116 19.9899 24.3213 20.1048 24.3236 20.22V20.2509C24.4361 20.165 24.5515 20.0757 24.664 19.9967C24.9524 19.794 25.2408 19.6187 25.5581 19.4504C25.8754 19.282 26.1783 19.1068 26.4926 18.9625C26.807 18.8182 27.1387 18.6498 27.4589 18.5055L28.4078 18.1001C29.0655 17.8252 29.7231 17.5538 30.3894 17.2824C31.0557 17.0109 31.6729 16.7636 32.319 16.5127C32.9651 16.2619 33.6083 16.0111 34.2544 15.7603L35.2207 15.3789L36.2071 14.9838C36.833 14.7295 37.4589 14.4719 38.0761 14.1832C38.2579 14.1042 38.4396 14.0183 38.6213 13.929L38.6732 13.9049H38.6934C38.6934 13.9049 38.7078 13.9049 38.7136 13.9049C38.8924 13.819 39.0741 13.7228 39.2558 13.6266L39.5039 13.4961L39.5933 13.448L39.6337 13.4239H39.6654V13.2968C39.6654 13.2143 39.6654 13.1284 39.6654 13.046L39.6452 12.7814C39.625 12.6165 39.5991 12.4378 39.5645 12.2695C39.5299 12.1011 39.4981 12.0049 39.452 11.8709C39.4058 11.7369 39.3626 11.6476 39.3164 11.5273C39.2775 11.448 39.2351 11.3712 39.1895 11.2971C39.0995 11.1571 39.0032 11.0229 38.9011 10.8951C38.8031 10.7799 38.7001 10.671 38.5924 10.5687C38.4511 10.4416 38.304 10.3214 38.1425 10.208C37.8524 10.0132 37.5539 9.83654 37.2483 9.67886C36.9397 9.52081 36.6224 9.37651 36.3023 9.24595C35.9821 9.11538 35.6216 8.98482 35.2726 8.87144C34.9236 8.75806 34.5198 8.62406 34.139 8.50381C33.7583 8.38355 33.392 8.25642 33.0228 8.12586C32.6536 7.9953 32.2498 7.84756 31.8691 7.70326L30.6663 7.24629C29.8529 6.94394 29.0424 6.63815 28.2204 6.33579C27.4676 6.05405 26.709 5.78262 25.9562 5.50088C25.2726 5.2535 24.5803 5.013 23.8881 4.77249C23.1093 4.50793 22.3277 4.26055 21.5489 4.02004L20.3952 3.67646C19.9885 3.5562 19.6135 3.43595 19.2097 3.29164C18.0819 2.9137 16.9657 2.50484 15.8379 2.12346C15.4399 1.98602 15.0447 1.8589 14.6496 1.72834C14.2544 1.59778 13.8679 1.48096 13.4727 1.37445C13.0776 1.26793 12.6997 1.14424 12.319 1.03086C11.9383 0.91748 11.5604 0.824712 11.1653 0.728509C10.7701 0.632305 10.3173 0.52923 9.89616 0.44677C9.74618 0.422719 9.60773 0.398668 9.45198 0.384925C9.31228 0.362715 9.17173 0.348954 9.03086 0.343695C8.93568 0.343695 8.84338 0.343695 8.74243 0.343695C8.64148 0.343695 8.5088 0.360874 8.39342 0.374617C8.27805 0.388361 8.24632 0.398668 8.17133 0.415848C8.09634 0.433027 8.00404 0.457078 7.91751 0.481128C7.83098 0.505179 7.78771 0.518923 7.72714 0.542973L7.55985 0.615126C7.4589 0.673535 7.35218 0.728509 7.25699 0.793789C7.14615 0.870935 7.03925 0.955834 6.93683 1.04804C6.84742 1.13737 6.76089 1.22327 6.67436 1.31947C6.58783 1.41568 6.57341 1.43973 6.52726 1.50501C6.48111 1.57029 6.42631 1.64244 6.37727 1.71116C6.28277 1.86354 6.19515 2.02181 6.1148 2.1853ZM40 13.3449V13.472C40 13.527 40 13.582 40 13.6404C40 13.7675 39.9798 13.8946 39.9683 14.0252C39.9481 14.2313 39.9135 14.4306 39.8875 14.6402C39.8616 14.8498 39.8125 15.0731 39.7721 15.2896C39.5847 16.2241 39.328 17.1381 39.0741 18.0382C38.7857 19.069 38.5146 20.0998 38.2607 21.1305C38.1598 21.5634 38.0588 22.0032 37.9723 22.4327C37.8627 22.9137 37.7502 23.3878 37.6435 23.8654C37.4272 24.8034 37.2195 25.7483 37.0234 26.6931L36.7349 28.1499L36.4465 29.5242C36.3513 29.9984 36.2648 30.4622 36.1581 30.9329C36.0513 31.4036 35.9648 31.8537 35.8696 32.3073C35.6677 33.1731 35.4341 34.0252 35.2062 34.867C35.0909 35.293 34.9755 35.7156 34.8572 36.1417C34.7563 36.5024 34.6553 36.8598 34.5399 37.2136C34.514 37.2858 34.4851 37.3648 34.465 37.437L34.4246 37.5572C34.4196 37.5829 34.4108 37.6074 34.3986 37.6294C34.3986 37.6294 34.3986 37.6534 34.3986 37.6603C34.3885 37.6871 34.3799 37.7147 34.3727 37.7428C34.3121 37.9008 34.2515 38.0623 34.1852 38.2135C34.1115 38.3857 34.0287 38.5521 33.9371 38.7117C33.8881 38.7907 33.8362 38.8628 33.7871 38.9419C33.7313 39.0205 33.6716 39.095 33.6083 39.1652C33.5391 39.2374 33.467 39.3026 33.392 39.3679C33.317 39.4332 33.2305 39.4779 33.1497 39.526C32.9922 39.6159 32.828 39.6883 32.6594 39.7424C32.4703 39.8071 32.2775 39.8554 32.0825 39.8867C31.921 39.9108 31.7594 39.9348 31.5979 39.9417H31.5662C31.1762 39.9692 30.7852 39.9692 30.3952 39.9417C29.9942 39.9073 29.5904 39.8524 29.1924 39.7802C28.7943 39.7081 28.3617 39.629 27.9435 39.5397L26.6397 39.2683C26.2792 39.1893 25.9158 39.1171 25.5466 39.0449C24.7332 38.8766 23.9256 38.7014 23.1209 38.4987C22.3161 38.2959 21.4681 38.076 20.6461 37.8424C20.225 37.7222 19.801 37.6122 19.377 37.4988C18.953 37.3854 18.5117 37.2377 18.1079 37.0934C17.7041 36.9491 17.3089 36.7876 16.9051 36.6296C16.5013 36.4715 16.1119 36.3066 15.7168 36.1554C14.9553 35.8531 14.1909 35.5644 13.4093 35.293C13.0257 35.1556 12.6421 35.0182 12.2556 34.891H12.2411C11.4739 34.6333 10.7095 34.3928 9.95674 34.1042C9.57312 33.9633 9.1895 33.8087 8.803 33.6507C8.4165 33.4926 8.05019 33.3071 7.67522 33.1284C7.48486 33.0425 7.29738 32.9463 7.09836 32.8501L7.04355 32.8261H7.00894C7.00894 32.8261 7.00894 32.8261 6.99452 32.8261H6.97433L6.91376 32.7917L6.76666 32.7196L6.49841 32.5787L5.35622 31.9534C4.6784 31.5857 4.01211 31.2044 3.33718 30.7955C3.00836 30.5928 2.68532 30.3866 2.36516 30.153C2.045 29.9194 1.75945 29.7132 1.47101 29.4658C1.35564 29.3628 1.24315 29.2563 1.13354 29.1532C1.02394 29.0501 0.960485 28.9676 0.865301 28.8611C0.723969 28.6996 0.591289 28.5175 0.461494 28.3561C0.373056 28.2272 0.290262 28.0931 0.213441 27.9541C0.167124 27.8663 0.124761 27.7757 0.0865301 27.6826C0.0865301 27.6826 0.0663398 27.6826 0.0605711 27.6826C0 27.6139 0 27.4868 0 27.3734C0 27.26 0.0144217 27.0711 0.0201904 26.9164C0.0403807 26.4767 0.0605711 26.0369 0.0951832 25.5971C0.129795 25.1573 0.175945 24.6282 0.227863 24.1472C0.279781 23.6661 0.337468 23.2367 0.403807 22.7728C0.539371 21.8452 0.712432 20.9312 0.888376 20.0242C0.974906 19.5672 1.07586 19.1034 1.17681 18.6498C1.27776 18.1963 1.3989 17.7118 1.52005 17.248C1.70753 16.3513 1.94404 15.4476 2.17768 14.544C2.29882 14.087 2.41996 13.6301 2.55264 13.1697C2.68532 12.7093 2.80935 12.266 2.94491 11.8194C3.21315 10.9055 3.46697 9.98465 3.72368 9.07072C3.98039 8.15679 4.23998 7.19475 4.49668 6.2602C4.75339 5.32566 4.97837 4.48388 5.2495 3.6043C5.46593 2.75306 5.82179 1.96132 6.29651 1.27481C6.42082 1.10766 6.55794 0.954674 6.70609 0.81784C6.78384 0.746364 6.86471 0.679844 6.94837 0.618562C7.03077 0.548973 7.11868 0.489135 7.21085 0.439898C7.36858 0.345061 7.53258 0.265772 7.70118 0.202826C7.8905 0.136652 8.08318 0.0850087 8.27805 0.0482131C8.66093 -0.00665849 9.04753 -0.0147174 9.43179 0.0241622C9.63946 0.0482131 9.84136 0.0825714 10.049 0.113494C10.2567 0.144416 10.4327 0.192518 10.6259 0.233748C11.0297 0.319644 11.4335 0.426155 11.8344 0.52923L12.9882 0.841891C13.3862 0.951838 13.7756 1.0824 14.165 1.18547C14.5544 1.28855 14.938 1.43285 15.3187 1.55998C15.9648 1.77644 16.608 1.99977 17.2541 2.22653C17.9002 2.4533 18.503 2.66632 19.1289 2.87247L20.2827 3.25728C20.6807 3.38441 21.0759 3.50466 21.4739 3.62492C22.2527 3.86543 23.0314 4.11281 23.8044 4.37737C24.5774 4.64193 25.4226 4.93054 26.2215 5.22602C26.5994 5.36345 26.9743 5.49745 27.3522 5.64175L28.4684 6.05062C29.2933 6.35641 30.1211 6.66563 30.9403 6.97829C31.7594 7.29095 32.4921 7.57269 33.2766 7.851L33.6746 7.98843C34.0237 8.10868 34.3784 8.22207 34.7361 8.33201C35.0937 8.44196 35.5149 8.57939 35.8898 8.7237C36.6152 8.98012 37.3191 9.31597 37.9925 9.72696C38.2801 9.90206 38.5525 10.1104 38.8059 10.3488C38.9694 10.5128 39.1236 10.6895 39.2674 10.878C39.3989 11.0473 39.5123 11.2354 39.6048 11.438C39.7636 11.7989 39.8699 12.1893 39.9192 12.5925C39.95 12.8012 39.9664 13.0127 39.9683 13.2246C39.9716 13.2669 39.9824 13.3079 40 13.3449ZM20.4327 25.5799H20.4528C20.4463 25.577 20.4392 25.577 20.4327 25.5799Z" fill="white"/>
</g>
<defs>
<clipPath id="clip0_111_135">
<rect width="40" height="40" fill="white"/>
</clipPath>
</defs>
</svg>
