<svg width="200" height="20" viewBox="0 0 200 20" fill="none" xmlns="http://www.w3.org/2000/svg">
<path d="M0 10.0054L85.8571 9.2207V10.7793L0 10.0054Z" fill="#DCAB5C"/>
<path d="M200 10.0054L114.136 9.2207V10.7793L200 10.0054Z" fill="#DCAB5C"/>
<path d="M109.283 4.76294C109.283 6.14668 108.948 7.47407 108.35 8.45456C107.753 9.43505 106.943 9.98878 106.096 9.99455C104.477 9.98878 102.926 8.93324 101.782 7.05952C100.639 5.1858 99.9966 2.64695 99.9966 0C99.9966 2.64506 99.3553 5.18227 98.2132 7.05568C97.0711 8.92908 95.5213 9.9859 93.9035 9.99455C93.0583 9.98591 92.2495 9.43092 91.6537 8.45074C91.0579 7.47055 90.7236 6.1448 90.7236 4.76294C90.7236 5.44997 90.6408 6.13026 90.48 6.76499C90.3192 7.39972 90.0835 7.97645 89.7864 8.46225C89.4892 8.94805 89.1365 9.33341 88.7482 9.59632C88.36 9.85923 87.9439 9.99455 87.5237 9.99455C88.3723 9.99455 89.1863 10.5457 89.7864 11.5269C90.3864 12.508 90.7236 13.8386 90.7236 15.2262C90.7253 13.8452 91.0603 12.5211 91.6557 11.5415C92.2511 10.5619 93.0588 10.006 93.9035 9.99455C95.5219 10.0061 97.0717 11.0653 98.2136 12.9404C99.3555 14.8156 99.9966 17.3539 99.9966 20C99.9966 17.3502 100.64 14.8085 101.784 12.9328C102.929 11.057 104.482 10.0003 106.103 9.99455C106.949 10.0032 107.758 10.5578 108.355 11.5377C108.952 12.5176 109.288 13.8433 109.29 15.2262C109.29 13.8386 109.627 12.508 110.227 11.5269C110.827 10.5457 111.641 9.99455 112.49 9.99455C111.641 9.99455 110.827 9.44336 110.227 8.46225C109.627 7.48113 109.29 6.15045 109.29 4.76294H109.283Z" fill="#DCAB5C"/>
</svg>
