<svg width="347" height="19" viewBox="0 0 347 19" fill="none" xmlns="http://www.w3.org/2000/svg">
<path d="M0 9.17996L148.962 8.45996V9.88996L0 9.17996Z" fill="#DCAB5C"/>
<path d="M347 9.17996L198.026 8.45996V9.88996L347 9.17996Z" fill="#DCAB5C"/>
<path d="M189.606 4.37C189.606 5.63958 189.024 6.85746 187.988 7.75706C186.952 8.65666 185.546 9.16471 184.077 9.17C181.268 9.1647 178.577 8.19624 176.593 6.47711C174.609 4.75797 173.494 2.42857 173.494 0C173.494 2.42685 172.382 4.75474 170.4 6.47359C168.418 8.19243 165.73 9.16206 162.923 9.17C161.456 9.16208 160.053 8.65287 159.019 7.75355C157.986 6.85423 157.406 5.63786 157.406 4.37C157.406 5.00034 157.262 5.62452 156.983 6.20688C156.704 6.78924 156.295 7.31839 155.779 7.76411C155.264 8.20983 154.652 8.5634 153.978 8.80462C153.305 9.04584 152.583 9.17 151.854 9.17C153.326 9.17 154.738 9.67571 155.779 10.5759C156.821 11.4761 157.406 12.697 157.406 13.97C157.409 12.7029 157.99 11.4881 159.023 10.5893C160.056 9.69058 161.457 9.18053 162.923 9.17C165.731 9.18058 168.42 10.1524 170.401 11.8729C172.382 13.5933 173.494 15.9222 173.494 18.35C173.494 15.9188 174.61 13.5868 176.596 11.8658C178.582 10.1448 181.277 9.1753 184.089 9.17C185.556 9.17791 186.961 9.6868 187.996 10.5858C189.032 11.4849 189.615 12.7012 189.618 13.97C189.618 12.697 190.203 11.4761 191.244 10.5759C192.285 9.67571 193.697 9.17 195.169 9.17C193.697 9.17 192.285 8.66429 191.244 7.76411C190.203 6.86394 189.618 5.64304 189.618 4.37H189.606Z" fill="#DCAB5C"/>
</svg>
