<svg width="80" height="80" viewBox="0 0 80 80" fill="none" xmlns="http://www.w3.org/2000/svg">
<path d="M62.7162 70.112C62.7175 69.5378 62.9548 68.9875 63.3761 68.5815C63.7975 68.1755 64.3685 67.9468 64.9643 67.9455H65.4824C66.0782 67.9468 66.6492 68.1755 67.0706 68.5815C67.4919 68.9875 67.7292 69.5378 67.7305 70.112V73.4466H62.7162V70.112ZM61.4574 70.112V74.0556C61.4574 74.2171 61.524 74.372 61.6425 74.4862C61.761 74.6004 61.9217 74.6646 62.0894 74.6646H68.3781C68.5457 74.6646 68.7064 74.6004 68.8249 74.4862C68.9435 74.372 69.01 74.2171 69.01 74.0556V70.112C69.0087 69.2152 68.638 68.3557 67.9795 67.722C67.321 67.0884 66.4285 66.7325 65.4979 66.7325H64.9799C64.5174 66.7299 64.0588 66.8153 63.6307 66.9839C63.2025 67.1525 62.8131 67.4009 62.4849 67.7149C62.1566 68.0289 61.8959 68.4023 61.7178 68.8137C61.5397 69.2251 61.4477 69.6663 61.447 70.112H61.4574Z" fill="#566484"/>
<path d="M17.1723 73.4465H12.1424V70.1119C12.1438 69.5378 12.3811 68.9875 12.8024 68.5815C13.2237 68.1754 13.7948 67.9468 14.3906 67.9455H14.9086C15.5044 67.9468 16.0755 68.1754 16.4968 68.5815C16.9181 68.9875 17.1554 69.5378 17.1568 70.1119L17.1723 73.4465ZM14.9241 66.7324H14.4061C13.476 66.7324 12.584 67.0885 11.9263 67.7223C11.2687 68.356 10.8992 69.2156 10.8992 70.1119V74.0555C10.8992 74.2162 10.965 74.3703 11.0824 74.4844C11.1998 74.5985 11.3593 74.6632 11.526 74.6645H17.8043C17.971 74.6632 18.1304 74.5985 18.2478 74.4844C18.3652 74.3703 18.4311 74.2162 18.4311 74.0555V70.1119C18.4311 69.6681 18.3404 69.2287 18.1642 68.8186C17.9879 68.4086 17.7296 68.0361 17.4039 67.7223C17.0783 67.4084 16.6917 67.1595 16.2662 66.9897C15.8407 66.8198 15.3847 66.7324 14.9241 66.7324Z" fill="#566484"/>
<path d="M7.18491 48.7358L25.6573 38.0881V48.017L22.2695 49.9738L16.9184 53.0538C16.8417 53.092 16.774 53.1449 16.7193 53.2092C16.6647 53.2736 16.6243 53.3481 16.6007 53.428C16.577 53.508 16.5706 53.5918 16.5819 53.6743C16.5931 53.7567 16.6218 53.8361 16.6661 53.9075C16.7104 53.9788 16.7694 54.0407 16.8395 54.0893C16.9095 54.1378 16.9891 54.1721 17.0735 54.1898C17.1578 54.2076 17.245 54.2085 17.3297 54.1926C17.4144 54.1766 17.4948 54.1441 17.5659 54.0971L21.9587 51.5662V78.782H7.18491V48.7358ZM32.2206 45.6508L39.8924 41.228L47.5642 45.6508L56.5621 50.8374V78.792H47.5435V73.0962C47.5353 71.3225 46.799 69.6239 45.4955 68.3715C44.192 67.1191 42.4272 66.4147 40.5865 66.4121H39.4055C37.5612 66.4147 35.7933 67.1219 34.4892 68.3786C33.1851 69.6353 32.4513 71.339 32.4485 73.1162V78.802H23.2227V50.8474L32.2206 45.6508ZM26.9213 21.5999L39.6904 14.0222L39.996 13.8375L51.066 20.5117L52.8739 21.5999V47.2882L40.2187 40C40.1209 39.9437 40.009 39.914 39.895 39.914C39.781 39.914 39.6691 39.9437 39.5712 40L26.9213 47.2882V21.5999ZM54.1275 38.0731L72.5999 48.7208V78.767H57.8261V51.5662L62.2189 54.0971C62.29 54.1441 62.3704 54.1766 62.4551 54.1926C62.5398 54.2085 62.627 54.2076 62.7113 54.1898C62.7956 54.1721 62.8753 54.1378 62.9454 54.0893C63.0154 54.0407 63.0744 53.9788 63.1187 53.9075C63.163 53.8361 63.1917 53.7567 63.2029 53.6743C63.2142 53.5918 63.2078 53.508 63.1841 53.428C63.1605 53.3481 63.1201 53.2736 63.0655 53.2092C63.0108 53.1449 62.9431 53.092 62.8664 53.0538L57.536 49.9738L54.143 48.017V38.0881L54.1275 38.0731ZM46.2847 78.782H40.6332V67.6101C42.1363 67.622 43.5737 68.2057 44.6323 69.2342C45.6908 70.2627 46.2848 71.6526 46.2847 73.1012V78.782ZM39.3692 78.782H33.7073V73.0962C33.7072 71.6476 34.3012 70.2577 35.3597 69.2292C36.4183 68.2007 37.8557 67.617 39.3588 67.6051L39.3692 78.782ZM0.989449 52.325L5.92614 49.4397V79.391C5.92613 79.5516 5.992 79.7058 6.1094 79.8199C6.2268 79.9339 6.38622 79.9987 6.55293 80H73.2319C73.3995 80 73.5602 79.9358 73.6787 79.8216C73.7973 79.7074 73.8639 79.5525 73.8639 79.391V49.3248L79.044 52.32C79.1419 52.3739 79.2524 52.4031 79.3652 52.4048C79.4752 52.4058 79.5836 52.3786 79.6791 52.3259C79.7747 52.2733 79.8541 52.1972 79.9091 52.1053C79.9521 52.037 79.9807 51.961 79.993 51.882C80.0054 51.8029 80.0013 51.7222 79.9811 51.6447C79.9608 51.5671 79.9248 51.4942 79.8751 51.4302C79.8254 51.3662 79.763 51.3123 79.6915 51.2717L54.1275 36.6155V22.3587L59.406 25.5435C59.5065 25.6056 59.6234 25.6385 59.7427 25.6383C59.879 25.636 60.011 25.5916 60.1191 25.5116C60.2273 25.4317 60.306 25.3204 60.3437 25.1941C60.3814 25.0679 60.376 24.9333 60.3285 24.8102C60.2809 24.6871 60.1936 24.5819 60.0795 24.5102L53.8322 20.7463L51.1644 19.1339L40.5606 12.7393V5.32135H44.4613C44.6289 5.32135 44.7897 5.25719 44.9082 5.14298C45.0267 5.02877 45.0933 4.87386 45.0933 4.71234C45.0933 4.55082 45.0267 4.39592 44.9082 4.28171C44.7897 4.1675 44.6289 4.10333 44.4613 4.10333H40.5606V0.60901C40.5606 0.447491 40.4941 0.292587 40.3755 0.178375C40.257 0.0641634 40.0963 0 39.9287 0C39.7611 0 39.6003 0.0641634 39.4818 0.178375C39.3633 0.292587 39.2967 0.447491 39.2967 0.60901V4.10333H35.396C35.2284 4.10333 35.0677 4.1675 34.9492 4.28171C34.8306 4.39592 34.764 4.55082 34.764 4.71234C34.764 4.87386 34.8306 5.02877 34.9492 5.14298C35.0677 5.25719 35.2284 5.32135 35.396 5.32135H39.2967V12.8092L19.8297 24.3804C19.6868 24.4651 19.5847 24.6011 19.5458 24.7583C19.507 24.9156 19.5345 25.0813 19.6225 25.219C19.7104 25.3567 19.8515 25.4551 20.0147 25.4925C20.1779 25.53 20.3498 25.5034 20.4927 25.4187L25.6729 22.3487V36.6704L0.34193 51.2567C0.265255 51.2949 0.197505 51.3478 0.142855 51.4121C0.088206 51.4765 0.0478159 51.551 0.0241748 51.631C0.000533655 51.7109 -0.00585744 51.7947 0.00539545 51.8772C0.0166483 51.9597 0.0453067 52.039 0.0896041 52.1104C0.133901 52.1818 0.192899 52.2436 0.26296 52.2922C0.333021 52.3408 0.41266 52.375 0.496969 52.3927C0.581278 52.4105 0.668469 52.4114 0.753169 52.3955C0.837868 52.3796 0.918281 52.3471 0.989449 52.3V52.325Z" fill="#566484"/>
<path d="M36.6549 52.2932H39.2968V57.7843C39.2968 57.9458 39.3634 58.1007 39.4819 58.2149C39.6004 58.3292 39.7612 58.3933 39.9288 58.3933C40.0964 58.3933 40.2571 58.3292 40.3757 58.2149C40.4942 58.1007 40.5608 57.9458 40.5608 57.7843V52.2932H43.2078C43.3754 52.2932 43.5362 52.2291 43.6547 52.1149C43.7732 52.0006 43.8398 51.8457 43.8398 51.6842C43.8398 51.5227 43.7732 51.3678 43.6547 51.2536C43.5362 51.1394 43.3754 51.0752 43.2078 51.0752H40.5608V48.734C40.5608 48.5725 40.4942 48.4176 40.3757 48.3034C40.2571 48.1892 40.0964 48.125 39.9288 48.125C39.7612 48.125 39.6004 48.1892 39.4819 48.3034C39.3634 48.4176 39.2968 48.5725 39.2968 48.734V51.0752H36.6549C36.4873 51.0752 36.3266 51.1394 36.2081 51.2536C36.0895 51.3678 36.0229 51.5227 36.0229 51.6842C36.0229 51.8457 36.0895 52.0006 36.2081 52.1149C36.3266 52.2291 36.4873 52.2932 36.6549 52.2932Z" fill="#566484"/>
<path d="M38.991 34.0605C38.6323 33.8647 38.2863 33.648 37.9549 33.4116C36.5563 32.4132 34.9297 30.8408 35.1266 28.9488C35.1712 28.49 35.382 28.061 35.722 27.7369C36.0621 27.4129 36.5096 27.2146 36.9862 27.1767H37.0536C37.5063 27.1999 37.9397 27.3606 38.2916 27.636C38.6148 27.8718 38.898 28.1548 39.1308 28.4746C39.2179 28.591 39.3322 28.6861 39.4645 28.752C39.5968 28.8179 39.7434 28.8528 39.8923 28.854C40.0422 28.854 40.1899 28.8196 40.3233 28.7537C40.4566 28.6877 40.5717 28.592 40.659 28.4746C40.8992 28.1572 41.1873 27.8763 41.5137 27.641C41.8817 27.3494 42.3427 27.189 42.8191 27.1867C43.299 27.2239 43.7498 27.4239 44.0912 27.7511C44.4326 28.0783 44.6426 28.5115 44.684 28.9738C44.8756 30.8657 43.2542 32.4681 41.8556 33.4365C41.5241 33.6728 41.1782 33.8895 40.8196 34.0855C40.5536 34.2329 40.2785 34.3646 39.9959 34.4798C39.9709 34.4797 39.9462 34.4746 39.9234 34.4649C39.8978 34.47 39.8713 34.47 39.8457 34.4649C39.5528 34.3464 39.2674 34.2114 38.991 34.0605ZM39.9234 35.6879C40.1013 35.6801 40.2765 35.643 40.4414 35.5781C40.7615 35.4435 41.0745 35.2935 41.379 35.1288C41.7969 34.9096 42.1984 34.6627 42.5808 34.39C44.9637 32.6977 46.1189 30.7759 45.9168 28.824C45.8821 28.2613 45.6862 27.7189 45.3509 27.2569C45.0156 26.795 44.554 26.4316 44.0174 26.2072C43.4808 25.9828 42.8901 25.9061 42.311 25.9856C41.7319 26.0651 41.1869 26.2977 40.7367 26.6576C40.4194 26.8856 40.1292 27.1467 39.8716 27.4363C39.6158 27.1468 39.3274 26.8856 39.0117 26.6576C38.5614 26.2977 38.0165 26.0651 37.4374 25.9856C36.8582 25.9061 36.2676 25.9828 35.7309 26.2072C35.1943 26.4316 34.7327 26.795 34.3974 27.2569C34.0621 27.7189 33.8663 28.2613 33.8315 28.824C33.6295 30.7759 34.7795 32.6977 37.1624 34.39C37.5475 34.6599 37.9507 34.905 38.3693 35.1238C38.6768 35.2912 38.9932 35.4429 39.3173 35.5781C39.4968 35.6483 39.6883 35.6855 39.8819 35.6879H39.9234Z" fill="#566484"/>
</svg>
