<svg width="25" height="25" viewBox="0 0 25 25" fill="none" xmlns="http://www.w3.org/2000/svg">
<g clip-path="url(#clip0_125_145)">
<path d="M12.5 2.25098C15.8398 2.25098 16.2354 2.26562 17.5488 2.32422C18.7695 2.37793 19.4287 2.58301 19.8682 2.75391C20.4492 2.97852 20.8691 3.25195 21.3037 3.68652C21.7432 4.12598 22.0117 4.54102 22.2412 5.12207C22.4121 5.56152 22.6172 6.22559 22.6709 7.44141C22.7295 8.75977 22.7441 9.15527 22.7441 12.4902C22.7441 15.8252 22.7295 16.2256 22.6709 17.5391C22.6172 18.7598 22.4121 19.4189 22.2412 19.8584C22.0166 20.4395 21.7432 20.8594 21.3086 21.2939C20.8691 21.7334 20.4541 22.002 19.873 22.2314C19.4336 22.4023 18.7695 22.6074 17.5537 22.6611C16.2354 22.7197 15.8398 22.7344 12.5049 22.7344C9.16992 22.7344 8.76953 22.7197 7.45605 22.6611C6.23535 22.6074 5.57617 22.4023 5.13672 22.2314C4.55566 22.0068 4.13574 21.7334 3.70117 21.2988C3.26172 20.8594 2.99316 20.4443 2.76367 19.8633C2.59277 19.4238 2.3877 18.7598 2.33398 17.5439C2.27539 16.2256 2.26074 15.8301 2.26074 12.4951C2.26074 9.16016 2.27539 8.75977 2.33398 7.44629C2.3877 6.22559 2.59277 5.56641 2.76367 5.12695C2.98828 4.5459 3.26172 4.12598 3.69629 3.69141C4.13574 3.25195 4.55078 2.9834 5.13184 2.75391C5.57129 2.58301 6.23535 2.37793 7.45117 2.32422C8.76465 2.26562 9.16016 2.25098 12.5 2.25098ZM12.5 0C9.10645 0 8.68164 0.0146484 7.34863 0.0732422C6.02051 0.131836 5.10742 0.34668 4.31641 0.654297C3.49121 0.976562 2.79297 1.40137 2.09961 2.09961C1.40137 2.79297 0.976562 3.49121 0.654297 4.31152C0.34668 5.10742 0.131836 6.01562 0.0732422 7.34375C0.0146484 8.68164 0 9.10645 0 12.5C0 15.8936 0.0146484 16.3184 0.0732422 17.6514C0.131836 18.9795 0.34668 19.8926 0.654297 20.6836C0.976562 21.5088 1.40137 22.207 2.09961 22.9004C2.79297 23.5937 3.49121 24.0234 4.31152 24.3408C5.10742 24.6484 6.01562 24.8633 7.34375 24.9219C8.67676 24.9805 9.10156 24.9951 12.4951 24.9951C15.8887 24.9951 16.3135 24.9805 17.6465 24.9219C18.9746 24.8633 19.8877 24.6484 20.6787 24.3408C21.499 24.0234 22.1973 23.5937 22.8906 22.9004C23.584 22.207 24.0137 21.5088 24.3311 20.6885C24.6387 19.8926 24.8535 18.9844 24.9121 17.6563C24.9707 16.3232 24.9854 15.8984 24.9854 12.5049C24.9854 9.11133 24.9707 8.68652 24.9121 7.35352C24.8535 6.02539 24.6387 5.1123 24.3311 4.32129C24.0234 3.49121 23.5986 2.79297 22.9004 2.09961C22.207 1.40625 21.5088 0.976562 20.6885 0.65918C19.8926 0.351562 18.9844 0.136719 17.6563 0.078125C16.3184 0.0146484 15.8936 0 12.5 0Z" fill="#C13584"/>
<path d="M12.5 6.0791C8.95508 6.0791 6.0791 8.95508 6.0791 12.5C6.0791 16.0449 8.95508 18.9209 12.5 18.9209C16.0449 18.9209 18.9209 16.0449 18.9209 12.5C18.9209 8.95508 16.0449 6.0791 12.5 6.0791ZM12.5 16.665C10.2002 16.665 8.33496 14.7998 8.33496 12.5C8.33496 10.2002 10.2002 8.33496 12.5 8.33496C14.7998 8.33496 16.665 10.2002 16.665 12.5C16.665 14.7998 14.7998 16.665 12.5 16.665Z" fill="#C13584"/>
<path d="M20.6738 5.8252C20.6738 6.65308 20.0027 7.32422 19.1748 7.32422C18.3469 7.32422 17.6758 6.65308 17.6758 5.8252C17.6758 4.99731 18.3469 4.32617 19.1748 4.32617C20.0027 4.32617 20.6738 4.99731 20.6738 5.8252Z" fill="#C13584"/>
</g>
<defs>
<clipPath id="clip0_125_145">
<rect width="25" height="25" fill="white"/>
</clipPath>
</defs>
</svg>
